<svg width="46" height="46" viewBox="0 0 46 46" fill="none" xmlns="http://www.w3.org/2000/svg">
<circle cx="23" cy="23" r="23" fill="#F66000"/>
<path d="M15.2252 20.1407C17.0529 10.6124 28.9564 10.6234 30.7748 20.1517C31.8418 25.7411 28.91 30.4722 26.34 33.3989C25.442 34.426 24.243 35 22.9954 35C21.7477 35 20.5488 34.426 19.6507 33.3989C17.0901 30.4722 14.1583 25.7301 15.2252 20.1407Z" fill="white"/>
<path d="M23.0009 24.4295C23.4106 24.4295 23.8163 24.3488 24.1948 24.192C24.5734 24.0352 24.9173 23.8053 25.207 23.5156C25.4968 23.2259 25.7266 22.882 25.8834 22.5034C26.0402 22.1249 26.1209 21.7192 26.1209 21.3095C26.1209 20.8997 26.0402 20.494 25.8834 20.1155C25.7266 19.7369 25.4968 19.393 25.207 19.1033C24.9173 18.8136 24.5734 18.5837 24.1948 18.4269C23.8163 18.2702 23.4106 18.1895 23.0009 18.1895C22.1734 18.1895 21.3798 18.5182 20.7947 19.1033C20.2096 19.6884 19.8809 20.482 19.8809 21.3095C19.8809 22.1369 20.2096 22.9305 20.7947 23.5156C21.3798 24.1007 22.1734 24.4295 23.0009 24.4295Z" fill="#F66000"/>
</svg>
