<svg width="194" height="60" viewBox="0 0 194 60" fill="none" xmlns="http://www.w3.org/2000/svg">
<rect y="21" width="8" height="17" rx="4" fill="white"/>
<rect x="9" y="15" width="8" height="29" rx="4" fill="white"/>
<rect x="18" y="9" width="12" height="41" rx="6" fill="white"/>
<rect width="8" height="17" rx="4" transform="matrix(-1 0 0 1 194 21)" fill="#F66000"/>
<rect width="8" height="29" rx="4" transform="matrix(-1 0 0 1 185 15)" fill="#F66000"/>
<rect width="12" height="41" rx="6" transform="matrix(-1 0 0 1 176 9)" fill="#F66000"/>
<path d="M57.33 49.08C53.658 49.08 50.328 48.234 47.34 46.542C44.388 44.814 42.066 42.474 40.374 39.522C38.718 36.534 37.89 33.24 37.89 29.64C37.89 26.184 38.628 23.07 40.104 20.298C41.58 17.49 43.668 15.294 46.368 13.71C49.104 12.09 52.218 11.28 55.71 11.28C58.878 11.28 61.578 11.694 63.81 12.522C66.042 13.35 67.698 14.394 68.778 15.654C69.39 16.446 69.768 17.454 69.912 18.678C70.092 19.902 70.182 21.396 70.182 23.16H68.562C67.878 19.884 66.618 17.49 64.782 15.978C62.982 14.466 60.498 13.71 57.33 13.71C53.298 13.71 50.31 15.222 48.366 18.246C46.422 21.27 45.45 25.068 45.45 29.64C45.45 35.796 46.512 40.224 48.636 42.924C50.796 45.588 53.694 46.92 57.33 46.92C60.138 46.92 62.568 46.452 64.62 45.516V35.904C64.62 33.996 65.34 32.43 66.78 31.206C68.22 29.946 70.992 29.316 75.096 29.316V30.666C72.792 30.666 71.64 32.376 71.64 35.796V45.462C69.588 46.722 67.392 47.64 65.052 48.216C62.712 48.792 60.138 49.08 57.33 49.08ZM89.8258 33.744L80.2678 19.38C79.1878 17.832 77.9998 16.482 76.7038 15.33C75.4438 14.178 74.2378 13.548 73.0858 13.44V12.36H78.9718C80.8078 12.36 82.4638 12.936 83.9398 14.088C85.4518 15.24 86.7298 16.644 87.7738 18.3L95.1178 29.37L105.594 12.36H109.104L96.8458 32.286V48H89.8258V33.744Z" fill="white"/>
<path d="M154.933 50.43C151.045 50.43 148.237 49.53 146.509 47.73C144.817 45.894 143.971 42.924 143.971 38.82V19.704L132.145 48H130.363L115.891 18.624V48H113.191V12.36H119.779L132.847 38.874L143.917 12.36H150.991V38.82C150.991 42.204 151.279 44.688 151.855 46.272C152.431 47.856 153.457 48.792 154.933 49.08V50.43Z" fill="#F66000"/>
</svg>
